M48
; DRILL file KiCad 10.0.3 date 2026-06-12T16:14:01
; FORMAT={-:-/ absolute / metric / decimal}
; #@! TF.CreationDate,2026-06-12T16:14:01-05:00
; #@! TF.GenerationSoftware,Kicad,Pcbnew,10.0.3
; #@! TF.FileFunction,Plated,1,2,PTH
FMAT,2
METRIC
; #@! TA.AperFunction,Plated,PTH,ComponentDrill
T1C1.000
; #@! TA.AperFunction,Plated,PTH,ComponentDrill
T2C1.500
%
G90
G05
T1
X90.8Y-69.55
X90.8Y-72.05
X90.8Y-74.55
X105.3Y-69.55
X105.3Y-74.55
X119.55Y-69.05
X119.55Y-71.59
X119.55Y-74.13
X119.55Y-76.67
X162.8Y-64.85
X162.8Y-67.39
X162.8Y-69.93
X162.8Y-72.47
X162.8Y-75.01
X162.8Y-77.55
X162.8Y-80.09
X178.05Y-64.85
X178.05Y-67.39
X178.05Y-69.93
X178.05Y-72.47
X178.05Y-75.01
X178.05Y-77.55
X178.05Y-80.09
T2
X95.2Y-46.09
X101.55Y-43.55
X120.2Y-46.01
X126.55Y-43.47
X145.2Y-46.09
X151.55Y-43.55
X170.32Y-46.09
X176.67Y-43.55
T2
G00X97.65Y-66.45
M15
G01X98.95Y-66.45
M16
G05
G00X97.65Y-77.65
M15
G01X98.95Y-77.65
M16
G05
M30
